<?xml version="1.0" encoding="UTF-8"?>
<svg version="1.1" xmlns="http://www.w3.org/2000/svg" width="634" height="460">
<path d="M0 0 C209.22 0 418.44 0 634 0 C634 151.8 634 303.6 634 460 C424.78 460 215.56 460 0 460 C0 308.2 0 156.4 0 0 Z " fill="#F9DA5D" transform="translate(0,0)"/>
<path d="M0 0 C79.2 0 158.4 0 240 0 C240 7.92 240 15.84 240 24 C247.92 24 255.84 24 264 24 C264 103.2 264 182.4 264 264 C184.8 264 105.6 264 24 264 C24 256.08 24 248.16 24 240 C16.08 240 8.16 240 0 240 C0 160.8 0 81.6 0 0 Z " fill="#EC739C" transform="translate(330,44)"/>
<path d="M0 0 C79.2 0 158.4 0 240 0 C240 7.92 240 15.84 240 24 C247.92 24 255.84 24 264 24 C264 103.2 264 182.4 264 264 C184.8 264 105.6 264 24 264 C24 256.08 24 248.16 24 240 C16.08 240 8.16 240 0 240 C0 160.8 0 81.6 0 0 Z " fill="#84D5EA" transform="translate(42,44)"/>
<path d="M0 0 C198 0 396 0 600 0 C600 3.96 600 7.92 600 12 C603.96 12 607.92 12 612 12 C612 25.2 612 38.4 612 52 C414 52 216 52 12 52 C12 48.04 12 44.08 12 40 C8.04 40 4.08 40 0 40 C0 26.8 0 13.6 0 0 Z " fill="#000000" transform="translate(6,380)"/>
<path d="M0 0 C79.2 0 158.4 0 240 0 C240 7.92 240 15.84 240 24 C247.92 24 255.84 24 264 24 C264 103.2 264 182.4 264 264 C184.8 264 105.6 264 24 264 C24 256.08 24 248.16 24 240 C16.08 240 8.16 240 0 240 C0 160.8 0 81.6 0 0 Z M12 12 C12 83.28 12 154.56 12 228 C83.28 228 154.56 228 228 228 C228 156.72 228 85.44 228 12 C156.72 12 85.44 12 12 12 Z " fill="#000000" transform="translate(330,44)"/>
<path d="M0 0 C79.2 0 158.4 0 240 0 C240 7.92 240 15.84 240 24 C247.92 24 255.84 24 264 24 C264 103.2 264 182.4 264 264 C184.8 264 105.6 264 24 264 C24 256.08 24 248.16 24 240 C16.08 240 8.16 240 0 240 C0 160.8 0 81.6 0 0 Z M12 12 C12 83.28 12 154.56 12 228 C83.28 228 154.56 228 228 228 C228 156.72 228 85.44 228 12 C156.72 12 85.44 12 12 12 Z " fill="#000000" transform="translate(42,44)"/>
<path d="M0 0 C190.08 0 380.16 0 576 0 C576 7.92 576 15.84 576 24 C385.92 24 195.84 24 0 24 C0 16.08 0 8.16 0 0 Z " fill="#F9DB5D" transform="translate(14,388)"/>
<path d="M0 0 C15.51 0 31.02 0 47 0 C48.50357288 3.7589322 49.43282018 6.622748 50.1484375 10.5078125 C50.34703369 11.56701904 50.54562988 12.62622559 50.75024414 13.7175293 C50.95641357 14.84199463 51.16258301 15.96645996 51.375 17.125 C52.84977088 25.00041792 54.35954732 32.85817507 56.0625 40.6875 C57.51518945 47.41123276 58.73702614 54.15380489 59.875 60.9375 C61.78134615 72.27090715 64.17450053 83.48214808 66.6328125 94.70703125 C67.49728456 98.6669483 68.35404498 102.62781823 69.171875 106.59765625 C69.40922363 107.74826538 69.40922363 107.74826538 69.65136719 108.92211914 C70.10633196 111.63374743 70.14428398 114.25860436 70 117 C71.32 117 72.64 117 74 117 C73.93232422 115.58654297 73.93232422 115.58654297 73.86328125 114.14453125 C73.86950866 109.16883271 75.06047246 104.51063073 76.1875 99.6875 C78.13459624 91.06753543 79.92301705 82.43375631 81.5625 73.75 C82.98045188 66.25102563 84.44673073 58.77136972 86.0625 51.3125 C87.74108659 43.5378171 89.14193519 35.72878675 90.42993164 27.88012695 C91.99812793 18.50277767 94.0336304 9.3402556 96 0 C111.84 0 127.68 0 144 0 C144 44.55 144 89.1 144 135 C135.75 135 127.5 135 119 135 C119 96.72 119 58.44 119 19 C118.01 19 117.02 19 116 19 C115.896875 20.175625 115.79375 21.35125 115.6875 22.5625 C115.07385863 28.09391518 113.94871977 33.49443302 112.82421875 38.94140625 C111.70243642 44.39101152 110.73105135 49.8680535 109.74609375 55.34375 C109.00715345 58.96494437 108.0279784 62.45181648 107 66 C106.65819791 67.66090498 106.34388013 69.32779808 106.0625 71 C105.32312528 75.24710594 104.49952245 79.46615649 103.625 83.6875 C102.01418671 91.62709241 100.71002883 99.61051392 99.44580078 107.61206055 C98.59689078 112.87487161 97.53560214 117.88555652 96 123 C95.61787744 124.95307087 95.26114189 126.91139123 94.9375 128.875 C94.11092985 133.88907015 94.11092985 133.88907015 93 135 C91.64905018 135.09268999 90.29332909 135.11747326 88.93920898 135.11352539 C88.07839218 135.11344986 87.21757538 135.11337433 86.33067322 135.11329651 C85.39526199 135.10813522 84.45985077 135.10297394 83.49609375 135.09765625 C82.54307877 135.0962413 81.59006378 135.09482635 80.60816956 135.09336853 C77.55124835 135.08775152 74.49439923 135.07519616 71.4375 135.0625 C69.37044376 135.05748719 67.30338638 135.05292391 65.23632812 135.04882812 C60.15752412 135.03777656 55.0787743 135.02050055 50 135 C49.87665283 134.23381348 49.75330566 133.46762695 49.6262207 132.67822266 C48.62308407 126.53908375 47.52001515 120.45035392 46.1875 114.375 C44.56715085 106.8304888 43.068554 99.26773567 41.625 91.6875 C39.79626481 82.0946361 37.91956378 72.51261305 36 62.9375 C35.62584961 61.06831909 35.62584961 61.06831909 35.24414062 59.16137695 C34.00905251 52.99997145 32.76494229 46.84054052 31.5078125 40.68359375 C31.27449219 39.5344751 31.04117188 38.38535645 30.80078125 37.20141602 C30.36136631 35.0384722 29.91882766 32.87615982 29.47265625 30.71459961 C29.27800781 29.75432861 29.08335938 28.79405762 28.8828125 27.8046875 C28.62588623 26.55147705 28.62588623 26.55147705 28.36376953 25.27294922 C28 23 28 23 28 19 C27.01 19 26.02 19 25 19 C25 57.28 25 95.56 25 135 C16.75 135 8.5 135 0 135 C0 90.45 0 45.9 0 0 Z " fill="#010202" transform="translate(90,95)"/>
<path d="M0 0 C15.18 0 30.36 0 46 0 C48.8639522 10.31022791 51.5851668 20.39542462 53.96875 30.78515625 C54.98689121 35.07347954 56.22236854 39.28284828 57.5 43.5 C59.41126686 49.80862856 61.02208131 56.13455882 62.48266602 62.5612793 C63.83364563 68.4451422 65.42493884 74.24262779 67.07202148 80.04956055 C68.9178227 86.59838144 70.56375563 93.18880313 72.18847656 99.79541016 C73.70261691 105.91316107 75.39097481 111.95747414 77.15625 118.0078125 C78.73755445 123.61558661 79.85794467 129.28972333 81 135 C72.09 135 63.18 135 54 135 C52.74543927 131.23631782 51.62141304 127.71388505 50.7109375 123.890625 C50.49179687 122.97152344 50.27265625 122.05242187 50.046875 121.10546875 C49.82515625 120.16316406 49.6034375 119.22085938 49.375 118.25 C49.14554687 117.29222656 48.91609375 116.33445312 48.6796875 115.34765625 C47 108.25897507 47 108.25897507 47 106 C31.16 106 15.32 106 -1 106 C-1.66 109.96 -2.32 113.92 -3 118 C-4.5 122.75 -4.5 122.75 -5.21875 124.671875 C-6.35301614 128.05198809 -7.13527549 131.54110195 -8 135 C-16.91 135 -25.82 135 -35 135 C-34.4225 132.710625 -33.845 130.42125 -33.25 128.0625 C-31.94846711 122.88799547 -30.69013517 117.70643924 -29.49169922 112.50708008 C-27.89660015 105.59049608 -26.11881014 98.771812 -24.125 91.95703125 C-21.84231569 84.04413918 -19.8579495 76.04508942 -17.79541016 68.07275391 C-16.47291854 62.96382834 -15.1429726 57.85685183 -13.8125 52.75 C-13.5748291 51.83484619 -13.3371582 50.91969238 -13.09228516 49.97680664 C-11.92583916 45.49672349 -10.73870434 41.02357012 -9.515625 36.55859375 C-7.94435837 30.82151345 -6.43508332 25.06919498 -4.9375 19.3125 C-4.68162109 18.33216797 -4.42574219 17.35183594 -4.16210938 16.34179688 C-2.74455483 10.90115695 -1.3637319 5.45492759 0 0 Z " fill="#030102" transform="translate(427,95)"/>
<path d="M0 0 C1.32 0 2.64 0 4 0 C7.30011316 11.80418518 10.46122036 23.61953956 13.23388672 35.55957031 C14.74744425 42.05118768 16.45716853 48.46581478 18.30078125 54.87109375 C19 58 19 58 19 64 C7.78 64 -3.44 64 -15 64 C-13.87389643 54.99117143 -13.87389643 54.99117143 -13.0546875 51.57421875 C-12.86817627 50.79071045 -12.68166504 50.00720215 -12.48950195 49.19995117 C-12.18532349 47.95628784 -12.18532349 47.95628784 -11.875 46.6875 C-11.66125732 45.80102783 -11.44751465 44.91455566 -11.22729492 44.0012207 C-8.78314435 33.95477041 -6.16811816 23.95166197 -3.55078125 13.94921875 C-2.33617181 9.30676038 -1.15183576 4.65840964 0 0 Z " fill="#E57098" transform="translate(448,112)"/>
</svg>
