<?xml version="1.0" encoding="UTF-8"?>
<svg version="1.1" xmlns="http://www.w3.org/2000/svg" width="1134" height="775" viewBox="0 0 1134 775">
<defs>
  <style>
    @keyframes speed-rush {
      0%,100% { transform: translateX(0px); }
      8%      { transform: translateX(16px); }
      18%     { transform: translateX(-4px); }
      28%     { transform: translateX(0px); }
    }
    @keyframes streak {
      0%   { transform: translateX(-320px); opacity: 0; }
      12%  { opacity: 0.45; }
      88%  { opacity: 0.45; }
      100% { transform: translateX(1500px); opacity: 0; }
    }
    .logo { animation: speed-rush 2.2s ease-in-out infinite; }
    .sk   { fill: #85BF40; opacity: 0; }
    .s1   { animation: streak 1.5s ease-in-out infinite 0s; }
    .s2   { animation: streak 1.5s ease-in-out infinite 0.25s; }
    .s3   { animation: streak 1.5s ease-in-out infinite 0.5s; }
    .s4   { animation: streak 1.5s ease-in-out infinite 0.75s; }
    .s5   { animation: streak 1.5s ease-in-out infinite 1.0s; }
  </style>
</defs>
<rect class="sk s1" x="0" y="110" width="310" height="8"  rx="4"/>
<rect class="sk s2" x="0" y="260" width="220" height="6"  rx="3"/>
<rect class="sk s3" x="0" y="390" width="270" height="7"  rx="3.5"/>
<rect class="sk s4" x="0" y="510" width="180" height="5"  rx="2.5"/>
<rect class="sk s5" x="0" y="185" width="150" height="4"  rx="2"/>
<g class="logo">
<path d="M0 0 C1.55977691 -0.00417475 3.11955078 -0.00965305 4.67931902 -0.01631981 C8.95929847 -0.03077723 13.23908539 -0.02652858 17.51907539 -0.019153 C22.13844231 -0.01442371 26.75776744 -0.02692986 31.37712097 -0.03717041 C40.42909166 -0.05437515 49.48099298 -0.05519402 58.53297578 -0.04995751 C65.90006946 -0.04591355 73.26714267 -0.04736209 80.63423538 -0.05270576 C82.20810458 -0.0538284 82.20810458 -0.0538284 83.81376911 -0.05497371 C85.9456321 -0.05650526 88.07749508 -0.05804361 90.20935805 -0.05958868 C110.21248309 -0.07332266 130.21556906 -0.06787232 150.21869321 -0.05640347 C168.47256869 -0.04649561 186.72634246 -0.05936769 204.98020224 -0.08333766 C223.7511911 -0.10779929 242.52213273 -0.11731766 261.29313719 -0.11068493 C271.8198788 -0.10720507 282.34654246 -0.10934142 292.87327194 -0.12693596 C301.84621349 -0.14174755 310.81902235 -0.14217888 319.79196154 -0.12486505 C324.36014141 -0.11642092 328.92808523 -0.11404079 333.49625206 -0.1295166 C377.16589229 -0.26667717 417.37602386 8.21751572 456.86221313 27.38768005 C457.58038208 27.73379333 458.29855103 28.07990662 459.03848267 28.43650818 C476.51960429 36.96862311 492.80793148 48.1024502 507.86221313 60.38768005 C508.39266235 60.8166156 508.92311157 61.24555115 509.46963501 61.68748474 C523.89894255 73.42298163 537.58095761 86.57413318 548.86221313 101.38768005 C549.65498657 102.38670349 550.44776001 103.38572693 551.26455688 104.4150238 C561.44121703 117.28718761 570.1276201 130.92595599 577.86221313 145.38768005 C578.19430786 146.0012738 578.52640259 146.61486755 578.86856079 147.24705505 C589.74842788 167.50275987 597.40859296 189.09155139 602.86221313 211.38768005 C603.07071899 212.23572205 603.27922485 213.08376404 603.49404907 213.95750427 C613.5788538 256.209945 612.20707842 301.36443973 601.86221313 343.38768005 C601.64726196 344.26794861 601.43231079 345.14821716 601.21084595 346.05516052 C592.26353076 381.7976117 575.22217218 416.84534354 551.86221313 445.38768005 C551.12615845 446.31451599 550.39010376 447.24135193 549.63174438 448.1962738 C537.27195194 463.61866969 523.49524502 478.26205917 507.86221313 490.38768005 C506.59637375 491.39392083 505.33076448 492.40045114 504.06533813 493.4072113 C472.20152754 518.52174921 435.74976987 535.40712843 396.42471313 545.07518005 C395.66400513 545.26563904 394.90329712 545.45609802 394.11953735 545.65232849 C378.06298825 549.42995224 362.13222533 550.83593773 345.68057251 550.8200531 C343.73563853 550.82909955 341.79071015 550.83942237 339.84578896 550.85089397 C334.57387756 550.87831278 329.30207374 550.88769574 324.03010035 550.89372778 C318.34770351 550.90342203 312.6653815 550.93009515 306.98303223 550.95448303 C295.93857873 550.99910891 284.89414093 551.02784498 273.84962237 551.05037236 C264.90956735 551.06880601 255.96954187 551.0926145 247.0295105 551.12019348 C245.75724999 551.124104 244.48498948 551.12801452 243.17417562 551.13204354 C240.59401654 551.13998086 238.01385747 551.14792281 235.43369842 551.15586936 C211.71531501 551.2281455 187.99691938 551.28181244 164.27847266 551.32803714 C145.20052727 551.36559159 126.12269322 551.41899258 107.04483032 551.48631287 C86.24409807 551.55969305 65.44339353 551.62010874 44.64256668 551.65928745 C42.46781663 551.66342643 40.29306662 551.66758656 38.11831665 551.67176819 C37.05063073 551.67381954 35.98294481 551.6758709 34.88290477 551.67798442 C27.38793366 551.69334524 19.89303139 551.71839008 12.39810181 551.74739075 C3.31472967 551.78235751 -5.76854056 551.80328091 -14.851982 551.80580783 C-19.45055148 551.80744914 -24.04886925 551.81538678 -28.6473732 551.84097672 C-32.83889755 551.86413503 -37.03001706 551.86859864 -41.22158909 551.85836089 C-42.72929425 551.85789725 -44.23702056 551.86413289 -45.74466228 551.87797201 C-59.64548668 551.99867205 -69.75730392 549.19080196 -80.00888062 539.64549255 C-88.41453236 530.93253741 -90.88731358 521.20703969 -90.72958374 509.40281677 C-90.22595115 498.3604514 -86.0899601 490.00259594 -78.13778687 482.38768005 C-77.39528687 481.66644958 -77.39528687 481.66644958 -76.63778687 480.9306488 C-67.38222358 472.60567205 -56.59402584 471.62279646 -44.57528687 471.07518005 C-33.42590165 470.26822817 -24.61376953 465.63121741 -17.13778687 457.38768005 C-9.91906254 448.39593571 -7.92316541 437.70140123 -9.13778687 426.38768005 C-11.63057001 415.72645499 -17.04349326 407.49272159 -25.69638062 400.89549255 C-31.33414922 397.41360666 -35.95602157 395.99891504 -42.57772827 395.71336365 C-43.33706476 395.68035345 -44.09640125 395.64734325 -44.87874794 395.61333275 C-56.777907 395.16517197 -68.69542227 395.21607211 -80.60157394 395.18844986 C-85.18502173 395.17759047 -89.76840037 395.15730883 -94.35180664 395.1353302 C-107.37011583 395.07397691 -120.38841528 395.01934578 -133.40682983 394.98631287 C-140.63001622 394.96790694 -147.85308065 394.93891661 -155.07617724 394.89830816 C-158.88140602 394.87737748 -162.68648234 394.86180048 -166.4917717 394.85950089 C-170.06584489 394.85733718 -173.63959806 394.84129504 -177.21357346 394.81511116 C-179.1290582 394.8046247 -181.04460572 394.80864099 -182.96011353 394.81329346 C-195.95171333 394.68995584 -207.49897448 392.27469368 -217.36044312 383.3837738 C-225.99319029 374.36376321 -229.55172236 364.03941622 -229.41513062 351.71580505 C-228.31086713 338.46464323 -222.32590049 329.58668738 -212.51278687 321.1493988 C-205.81693596 316.18257519 -198.87893261 314.27947792 -190.64984131 314.21841431 C-190.00011089 314.21221504 -189.35038047 314.20601577 -188.68096125 314.19962865 C-186.50561221 314.1799403 -184.33027515 314.1670472 -182.15487671 314.15403748 C-180.59417333 314.14114126 -179.03347383 314.12776778 -177.47277832 314.11395264 C-174.11159035 314.08485463 -170.75039543 314.05841922 -167.3891716 314.0338192 C-162.06804235 313.99412719 -156.74704312 313.94403622 -151.42602539 313.8916626 C-149.60287295 313.87384382 -147.77972041 313.85603595 -145.95656776 313.83823872 C-145.04350719 313.82932153 -144.13044661 313.82040435 -143.18971753 313.81121695 C-130.80384685 313.69112964 -118.41795103 313.57982579 -106.03182983 313.48899841 C-97.67480231 313.42763304 -89.31802308 313.35234841 -80.9612633 313.26142961 C-76.54223583 313.21394036 -72.12340143 313.17358914 -67.70417404 313.15042686 C-63.54246918 313.12855611 -59.38133213 313.0883995 -55.21992111 313.03462029 C-53.69869748 313.01817325 -52.17738498 313.00831424 -50.65607452 313.00579453 C-37.79841712 312.97835566 -28.85865655 310.93761659 -19.40341187 301.8837738 C-11.36964832 293.03278258 -8.64033237 284.16202285 -8.89169312 272.4072113 C-9.86212901 260.50011696 -15.8338229 252.13378628 -24.40341187 244.2118988 C-33.39220731 238.21508813 -42.3078063 237.79236015 -52.80184937 237.79759216 C-54.36344985 237.78388225 -55.92503567 237.76840635 -57.48660278 237.75131226 C-60.83135757 237.71831745 -64.17588489 237.69741173 -67.52078247 237.68606377 C-72.81734927 237.66775515 -78.11342348 237.62047006 -83.40975952 237.56921387 C-93.69758363 237.47354264 -103.98549458 237.40658945 -114.27355957 237.3431015 C-127.36863613 237.26116571 -140.46356507 237.16742291 -153.55833244 237.04533011 C-158.81581749 236.99728466 -164.07312226 236.9639815 -169.33078003 236.94245327 C-172.6090886 236.92622707 -175.88721725 236.897961 -179.1654129 236.86663246 C-180.67699287 236.85467566 -182.18862217 236.84768016 -183.70024872 236.84621429 C-198.40700317 236.82717119 -208.89512695 234.20439237 -219.88778687 224.13768005 C-227.9687306 215.64425195 -230.62741846 204.80660668 -230.38388062 193.40330505 C-229.50988931 182.69344339 -224.59320501 173.30306937 -216.76278687 166.01268005 C-205.58302349 156.73983284 -193.79906966 156.08903894 -179.7791748 156.13612366 C-178.22007097 156.13398288 -176.66096815 156.13095582 -175.10186756 156.12712324 C-170.83361413 156.11910831 -166.56544873 156.12337803 -162.29719567 156.12964201 C-157.68768678 156.13418534 -153.0781944 156.12713063 -148.46868896 156.12133789 C-140.48524502 156.11271358 -132.50182324 156.11089467 -124.5183754 156.11328506 C-112.96373603 156.11638542 -101.40914556 156.10473437 -89.85451852 156.08873527 C-71.09103552 156.06278393 -52.32755248 156.04275952 -33.5640564 156.02928162 C-32.44157894 156.02847125 -31.31910149 156.02766088 -30.16260956 156.02682595 C-14.23236263 156.0156038 1.69788081 156.01032298 17.62813117 156.00743882 C18.75000224 156.00723484 19.87187331 156.00703085 21.02774048 156.00682068 C22.70849105 156.00652077 22.70849105 156.00652077 24.42319618 156.00621481 C43.1150959 156.00248054 61.80694253 155.98338697 80.49881566 155.95172632 C92.02238212 155.93282349 103.54581238 155.926843 115.06939007 155.9375435 C122.966799 155.94386738 130.86411032 155.93580856 138.76149784 155.91648938 C143.31580197 155.90581836 147.86986899 155.90163742 152.42417145 155.91496086 C156.5978691 155.92704813 160.77112303 155.92060251 164.94478239 155.89976887 C166.45007898 155.89548119 167.95541348 155.89786615 169.46068333 155.90781005 C183.04523379 155.99099599 193.68616162 153.44991182 203.54580688 143.7275238 C210.39626097 136.2278995 213.7762923 127.60503054 213.89736938 117.43455505 C213.31540144 106.36296975 209.62330487 97.37838989 201.86221313 89.38768005 C190.8402012 80.15901193 179.38626767 79.95190639 165.71304321 80.00291443 C163.87238225 79.99880475 162.03172389 79.99334154 160.19107056 79.9866333 C156.23951424 79.97494091 152.28809748 79.97241241 148.33652687 79.97698975 C142.07716939 79.98382368 135.81799399 79.96788851 129.55867004 79.94859314 C116.26402752 79.91078986 102.96940115 79.89795309 89.67471313 79.88768005 C75.33664387 79.87659028 60.99865918 79.86110058 46.66064757 79.81696749 C40.45000916 79.79870004 34.23958047 79.79468721 28.02892172 79.80190277 C24.14955509 79.80343433 20.27029152 79.79257967 16.39095306 79.7785244 C14.60527881 79.77455213 12.81958447 79.77559421 11.03391838 79.78229713 C-5.21607098 79.83856252 -19.41992376 78.82428058 -32.19638062 67.57518005 C-40.25412799 59.25750535 -43.57536869 47.84775954 -43.40731812 36.48143005 C-42.42219547 25.17393538 -37.62137069 14.83522729 -28.86434937 7.4775238 C-26.66110807 5.94728625 -24.52351266 4.61395097 -22.13778687 3.38768005 C-21.24609991 2.87553924 -20.35441296 2.36339842 -19.43570518 1.83573818 C-13.35047759 -0.72241034 -6.48557916 -0.02815615 0 0 Z " fill="#85BF40" transform="translate(524.1377868652344,0.6123199462890625)"/>
<path d="M0 0 C1.16871273 -0.00551503 1.16871273 -0.00551503 2.36103582 -0.01114148 C4.96852118 -0.02214313 7.57596663 -0.02601621 10.18347168 -0.02983093 C12.05471929 -0.03609837 13.92596567 -0.04274542 15.79721069 -0.04974365 C21.94092954 -0.07075774 28.08464856 -0.08114539 34.22839355 -0.09111023 C36.3470206 -0.09515915 38.46564751 -0.09927611 40.58427429 -0.10346031 C50.54165357 -0.12250825 60.49902547 -0.13673863 70.45641947 -0.14507228 C81.93112935 -0.15483551 93.40564586 -0.18113291 104.88028765 -0.22157317 C113.76119918 -0.25179242 122.64205548 -0.26654677 131.52301741 -0.26985329 C136.82138627 -0.27219764 142.11954847 -0.2810776 147.41786194 -0.30631447 C152.40838593 -0.32970116 157.39856874 -0.333786 162.38913345 -0.32355309 C164.21232874 -0.32306014 166.03554142 -0.32930865 167.85868454 -0.34310913 C183.22429277 -0.45283295 195.82591073 1.15561982 207.3182373 12.18232727 C215.74445907 20.94869009 218.60729867 30.8365096 218.4744873 42.81904602 C217.49624743 54.55792446 212.77985562 63.03647393 204.32214355 70.89717102 C195.97396509 77.86456711 186.81761955 80.46482197 176.01333618 80.40786743 C175.22951439 80.41169298 174.44569259 80.41551853 173.63811862 80.41946 C171.03288653 80.429712 168.42787805 80.4258128 165.82263184 80.42182922 C163.94607338 80.42618003 162.0695167 80.4313644 160.19296265 80.43731689 C155.1102623 80.45067864 150.02763645 80.45128869 144.94492197 80.4487536 C140.69554578 80.44768195 136.44618454 80.45257223 132.19681156 80.45735902 C122.16842772 80.46844449 112.14008134 80.46889704 102.11169434 80.46284485 C91.78021207 80.45680543 81.448866 80.4691175 71.11740696 80.49041492 C62.23392691 80.50805134 53.35049012 80.51402904 44.46699321 80.51077718 C39.16713752 80.5089674 33.86737899 80.51156997 28.56753922 80.52549171 C23.581938 80.53809861 18.59654856 80.53609888 13.61095047 80.52308083 C11.78650337 80.52072171 9.96204123 80.52342577 8.13761139 80.53170395 C-6.21251901 80.5920959 -18.69362201 79.3880154 -29.81066895 69.33076477 C-39.15043779 59.32386958 -41.30610182 48.95310634 -41.0723877 35.70576477 C-40.63831603 25.28590653 -36.07290371 17.46859671 -28.80285645 10.14717102 C-20.03819855 3.00894449 -11.24941752 -0.00286606 0 0 Z " fill="#85BF40" transform="translate(40.8028564453125,235.8528289794922)"/>
<path d="M0 0 C0.80011629 -0.00367669 1.60023258 -0.00735338 2.42459482 -0.01114148 C5.10895167 -0.02216513 7.79326979 -0.02601995 10.47764587 -0.02983093 C12.40125145 -0.03609668 14.32485582 -0.04274358 16.24845886 -0.04974365 C22.56955626 -0.07077669 28.89065387 -0.08114668 35.21177673 -0.09111023 C37.38957164 -0.09515834 39.56736641 -0.09927528 41.74516106 -0.10346031 C51.97911854 -0.12251186 62.21306881 -0.13674187 72.44704062 -0.14507228 C84.25005102 -0.15483902 96.05287361 -0.1811441 107.85581785 -0.22157317 C116.9846589 -0.25176636 126.11344622 -0.26654428 135.24233621 -0.26985329 C140.69156029 -0.27220049 146.14058371 -0.28111788 151.5897541 -0.30631447 C156.72060862 -0.32965555 161.85113123 -0.33380411 166.98202515 -0.32355309 C168.85927372 -0.32305905 170.73653896 -0.32934019 172.61373711 -0.34310913 C186.91467016 -0.44208564 198.28989387 0.7880479 209.11412048 11.14717102 C217.67453811 20.5101278 220.64076778 30.71153067 220.38755798 43.18623352 C219.69449334 53.22576996 215.93380098 60.86317185 209.11412048 68.14717102 C208.59076111 68.7117804 208.06740173 69.27638977 207.52818298 69.85810852 C195.08434506 81.81633326 177.76023869 80.29683574 161.81968689 80.24824524 C159.97563716 80.24628347 158.13158699 80.24470177 156.28753662 80.24346924 C150.26355863 80.23734087 144.23963458 80.2201043 138.21568298 80.20185852 C136.13385908 80.19606174 134.0520351 80.19029535 131.97021103 80.18455887 C123.30910047 80.15991429 114.64800734 80.13241955 105.98693275 80.09721184 C93.61055044 80.04697055 81.23438969 80.0135792 68.85790694 80.0039233 C60.13308125 79.99576376 51.40843893 79.96856592 42.68370759 79.92731678 C37.48215046 79.90320514 32.28087575 79.8872331 27.07925797 79.89158249 C22.18535565 79.89523588 17.29210415 79.87516538 12.39835167 79.83740425 C10.61024636 79.82762224 8.82207134 79.82617714 7.03395653 79.83403206 C-7.26798032 79.88918606 -18.09392914 77.8267334 -28.76087952 67.46748352 C-37.20471481 58.24756043 -39.51971737 48.18634422 -39.23353577 35.83076477 C-38.25802067 25.49468913 -33.25717041 15.94462354 -25.63587952 8.89717102 C-17.77005202 2.60801273 -9.91956041 -0.002447 0 0 Z " fill="#85BF40" transform="translate(226.88587951660156,-0.1471710205078125)"/>
<path d="M0 0 C0.79603274 -0.00367669 1.59206548 -0.00735338 2.41222042 -0.01114148 C5.08275777 -0.02216473 7.75325618 -0.02601989 10.42381287 -0.02983093 C12.33756636 -0.03609671 14.25131863 -0.04274361 16.16506958 -0.04974365 C22.45370132 -0.07077636 28.74233327 -0.08114667 35.0309906 -0.09111023 C37.1976415 -0.09515836 39.36429228 -0.0992753 41.53094292 -0.10346031 C51.71257466 -0.12251181 61.89419916 -0.13674182 72.0758453 -0.14507228 C83.8182956 -0.15483892 95.56055711 -0.18114376 107.30294091 -0.22157317 C116.38507322 -0.25176699 125.46715152 -0.26654434 134.54933304 -0.26985329 C139.97061188 -0.27220043 145.39168902 -0.28111693 150.81291389 -0.30631447 C155.91750408 -0.32965665 161.02176066 -0.33380367 166.12639046 -0.32355309 C167.99396374 -0.32305908 169.8615538 -0.32933945 171.72907639 -0.34310913 C186.4316741 -0.44539775 198.6156424 1.30586835 209.8669281 11.73701477 C218.49665201 21.0694134 220.74317262 31.36995819 220.4841156 43.67842102 C219.95920803 53.82231375 215.63389379 61.80659231 208.6169281 68.98701477 C200.35425813 76.22830874 191.91293011 79.46075327 180.90544128 79.41459656 C180.10276172 79.41912767 179.30008215 79.42365878 178.47307897 79.4283272 C175.79798748 79.44093251 173.12310059 79.43935334 170.44798279 79.43769836 C168.52393331 79.44368607 166.59988623 79.45049217 164.67584229 79.45805359 C159.45872956 79.47569707 154.24168248 79.4804083 149.02454281 79.48168516 C145.76182564 79.48310836 142.49912508 79.48738119 139.23641205 79.4926796 C127.84452254 79.51117508 116.45267978 79.51935089 105.06077576 79.51777649 C94.45721249 79.51657553 83.85385292 79.53767023 73.25034118 79.56926382 C64.13417029 79.59545374 55.01806582 79.60614263 45.90185761 79.60486567 C40.4627505 79.6043568 35.02382444 79.60999864 29.58475494 79.63122177 C24.46615644 79.65064962 19.34791083 79.65069749 14.22929955 79.63618851 C12.35689208 79.63410489 10.48446227 79.63877448 8.61209297 79.65090942 C-5.11967395 79.7341003 -15.76664979 78.6276806 -26.62135315 69.35810852 C-34.76257823 61.27401484 -38.93108986 51.37333548 -39.09791565 39.95967102 C-38.97406982 28.96216102 -35.48214643 19.37511645 -28.0315094 11.13935852 C-19.84050882 3.49442465 -11.0631897 -0.0027434 0 0 Z " fill="#85BF40" transform="translate(180.84791564941406,472.8528289794922)"/>
<path d="M0 0 C2.97361086 2.21563162 4.36959793 3.73919585 6 7 C6.39832031 6.57847656 6.79664062 6.15695312 7.20703125 5.72265625 C7.73683594 5.17480469 8.26664063 4.62695312 8.8125 4.0625 C9.33457031 3.51722656 9.85664062 2.97195313 10.39453125 2.41015625 C14.48739531 -1.18479247 20.34958809 -0.384665 25.47265625 -0.34765625 C31.68745638 0.26487665 35.02757696 3.02757696 39.3125 7.3125 C43.29647867 13.65735492 44.46198622 19.40582701 44.43359375 26.7421875 C44.4388356 27.55060089 44.44407745 28.35901428 44.44947815 29.19192505 C44.45586087 30.89112202 44.45461035 32.59036341 44.44604492 34.28955078 C44.43754356 36.86181955 44.46633263 39.43185652 44.49804688 42.00390625 C44.58146886 61.06340288 44.58146886 61.06340288 38.22045898 67.91748047 C33.00630771 72.71358215 28.84025604 74.32747121 21.6875 74.5 C20.41261719 74.5515625 19.13773438 74.603125 17.82421875 74.65625 C12.84401102 73.80162804 10.44855167 71.54135877 7 68 C6.98018066 68.65484375 6.96036133 69.3096875 6.93994141 69.984375 C6.84389478 72.98994448 6.73454216 75.99489331 6.625 79 C6.57859375 80.54494141 6.57859375 80.54494141 6.53125 82.12109375 C5.99306931 96.2034885 5.99306931 96.2034885 2.24609375 101.4609375 C-2.06453185 104.41465313 -7.0195327 103.91172489 -12 103 C-14.95814141 101.07347934 -16.41263366 98.65510658 -17.60321045 95.30024719 C-18.19680624 91.85908536 -18.15601295 88.42727671 -18.16113281 84.94604492 C-18.16858017 83.73308495 -18.16858017 83.73308495 -18.17617798 82.49562073 C-18.1907672 79.8238947 -18.19759625 77.15222805 -18.203125 74.48046875 C-18.20887919 72.61965433 -18.21463689 70.75883991 -18.22039795 68.89802551 C-18.23089876 64.99671147 -18.23674743 61.09541798 -18.24023438 57.1940918 C-18.24571669 52.20407193 -18.269743 47.21432524 -18.29820633 42.22439098 C-18.31686393 38.3801444 -18.32203998 34.53596322 -18.32357025 30.69167519 C-18.32659033 28.85253722 -18.33459703 27.01340024 -18.34775543 25.17430687 C-18.3648811 22.59670821 -18.36291989 20.01977172 -18.35644531 17.44213867 C-18.3656601 16.68812775 -18.37487488 15.93411682 -18.3843689 15.15725708 C-18.34450679 10.07080242 -17.42105986 6.50324853 -15 2 C-10.34186237 -1.10542508 -5.45168836 -0.74307763 0 0 Z M8.625 20.25 C5.50197825 25.53511373 5.75304345 30.75495946 5.6875 36.75 C5.65849609 37.61882813 5.62949219 38.48765625 5.59960938 39.3828125 C5.53810365 45.68478378 6.76509585 49.58169018 10 55 C11.17110184 56.38908639 11.17110184 56.38908639 14.4375 56.25 C15.613125 56.1675 16.78875 56.085 18 56 C21.84589771 50.23115344 21.18306837 43.83449361 21.1875 37.125 C21.19974609 36.15691406 21.21199219 35.18882812 21.22460938 34.19140625 C21.23575435 28.73037092 20.8847421 24.14275355 19 19 C17.84133079 17.63363845 17.84133079 17.63363845 14.6875 17.625 C10.90599685 17.63030929 10.90599685 17.63030929 8.625 20.25 Z " fill="#85BF40" transform="translate(101,671)"/>
<path d="M0 0 C1.20527344 -0.01675781 2.41054688 -0.03351562 3.65234375 -0.05078125 C9.24699863 0.54521291 12.32359131 3.29663511 16.0625 7.3125 C16.495625 6.52875 16.92875 5.745 17.375 4.9375 C19.0625 2.3125 19.0625 2.3125 22.0625 0.3125 C26.6184748 -0.36245923 31.88469898 -1.05262055 35.92578125 1.48046875 C39.85885352 5.99364017 40.18383346 10.92254308 40.20776367 16.65014648 C40.21414352 17.69150253 40.22052338 18.73285858 40.22709656 19.80577087 C40.22820938 20.92045242 40.2293222 22.03513397 40.23046875 23.18359375 C40.23546135 24.91622215 40.23546135 24.91622215 40.24055481 26.68385315 C40.24561193 29.12394819 40.24796351 31.56405012 40.24780273 34.00415039 C40.24998985 37.73270061 40.2681605 41.4609552 40.28710938 45.18945312 C40.29004343 47.56249899 40.29202814 49.93554626 40.29296875 52.30859375 C40.30015427 53.42125107 40.30733978 54.53390839 40.31474304 55.68028259 C40.29603553 62.03143684 40.25889411 67.38234394 36.30859375 72.65234375 C32.65250609 75.35466941 29.32335103 74.9129965 24.921875 74.7734375 C22.0625 74.3125 22.0625 74.3125 18.875 72 C17.0625 69.3125 17.0625 69.3125 16.0625 66.3125 C15.32 67.26125 14.5775 68.21 13.8125 69.1875 C11.80584966 71.75155321 10.13754916 73.17537245 7.0625 74.3125 C-0.3872098 75.18407935 -7.24524325 75.41127006 -13.39453125 70.73046875 C-18.67719682 65.87576596 -21.95279074 60.20944257 -22.35742188 53.00463867 C-22.39038681 51.41350691 -22.40585301 49.8219419 -22.40625 48.23046875 C-22.41386353 47.37624832 -22.42147705 46.52202789 -22.42932129 45.641922 C-22.44007712 43.84260972 -22.44299387 42.04323524 -22.43847656 40.24389648 C-22.43750628 37.51763593 -22.47913469 34.79421305 -22.5234375 32.06835938 C-22.59172352 22.14613388 -22.59525139 13.36805491 -15.42358398 5.69213867 C-10.43942426 1.25173404 -6.61195293 0.02116954 0 0 Z M4.0625 18.3125 C0.6711029 24.6287528 0.60959961 30.23222008 0.6875 37.3125 C0.67589844 38.36695313 0.66429687 39.42140625 0.65234375 40.5078125 C0.67507275 46.55372737 1.1907832 50.96411739 4.0625 56.3125 C7.39450185 56.73021804 7.39450185 56.73021804 11.0625 56.3125 C14.62539337 52.93712734 15.84724183 49.94310327 16.23950195 45.14941406 C16.3062667 42.62033364 16.34734167 40.09231509 16.375 37.5625 C16.40400391 36.69367187 16.43300781 35.82484375 16.46289062 34.9296875 C16.52439635 28.62771622 15.29740415 24.73080982 12.0625 19.3125 C10.87825674 17.89672523 10.87825674 17.89672523 7.5 18.25 C5.7984375 18.2809375 5.7984375 18.2809375 4.0625 18.3125 Z " fill="#85BF40" transform="translate(360.9375,670.6875)"/>
<path d="M0 0 C2.97361086 2.21563162 4.36959793 3.73919585 6 7 C6.48210938 6.57847656 6.96421875 6.15695312 7.4609375 5.72265625 C8.09257813 5.17480469 8.72421875 4.62695312 9.375 4.0625 C10.31472656 3.24458984 10.31472656 3.24458984 11.2734375 2.41015625 C16.1964385 -1.61066583 22.98340532 -0.44959169 29 0 C35.25595494 1.45122466 38.35373744 5.15600033 41.7734375 10.390625 C44.85631595 16.94910526 45.30033662 23.34854956 45.265625 30.46875 C45.26849518 31.78836731 45.26849518 31.78836731 45.27142334 33.13464355 C45.27277645 34.98348275 45.26914151 36.83233173 45.26074219 38.68115234 C45.25003018 41.49208151 45.26066734 44.30237168 45.2734375 47.11328125 C45.27211575 48.91927223 45.26955304 50.72526281 45.265625 52.53125 C45.26967346 53.36168823 45.27372192 54.19212646 45.27789307 55.04772949 C45.22889404 61.22223266 44.96992876 67.45815643 41.0625 72.5 C36.43052886 74.76872056 32.05984809 74.77303235 27 74 C23.43789491 71.65422348 22.2565366 69.00208223 21 65 C20.69011603 61.73849028 20.67533648 58.48547078 20.65625 55.2109375 C20.6416272 54.27069733 20.62700439 53.33045715 20.61193848 52.36172485 C20.54979013 48.34903265 20.50999638 44.33619033 20.46826172 40.32324219 C20.43457137 37.3898089 20.38946177 34.45670404 20.34375 31.5234375 C20.3384729 30.61403412 20.3331958 29.70463074 20.32775879 28.76766968 C20.31434448 27.9231424 20.30093018 27.07861511 20.28710938 26.20849609 C20.27981812 25.46634857 20.27252686 24.72420105 20.26501465 23.95956421 C20.1022741 21.67871261 20.1022741 21.67871261 18 19 C15.04253508 18.41654524 15.04253508 18.41654524 12 19 C8.46580422 22.02931067 7.85302788 26.59906315 7 31 C6.81709883 33.58020707 6.71600651 36.1673417 6.69140625 38.75390625 C6.66626285 40.19987411 6.6408646 41.64583756 6.61523438 43.09179688 C6.58649255 45.33193971 6.56242056 47.57200655 6.54370117 49.81225586 C6.52191636 52.00150955 6.4824976 54.18994178 6.44140625 56.37890625 C6.42795166 57.6738501 6.41449707 58.96879395 6.40063477 60.30297852 C5.87897733 65.11678628 4.46783009 68.88510872 1.6796875 72.90234375 C-2.25373133 75.47278722 -7.55622459 74.74362773 -12 74 C-15.22240032 71.97333313 -16.66075612 69.33214065 -17.60321045 65.63131714 C-18.01314996 62.91279581 -18.14088864 60.33512403 -18.16113281 57.58642578 C-18.17074036 56.52827667 -18.1803479 55.47012756 -18.19024658 54.37991333 C-18.19449646 53.24649506 -18.19874634 52.11307678 -18.203125 50.9453125 C-18.20882507 49.77040253 -18.21452515 48.59549255 -18.22039795 47.38497925 C-18.22983382 44.90200701 -18.23637631 42.41902233 -18.24023438 39.93603516 C-18.24994635 36.1459362 -18.28098666 32.35637818 -18.3125 28.56640625 C-18.3190299 26.15104488 -18.32428042 23.73567964 -18.328125 21.3203125 C-18.3404718 20.19094269 -18.3528186 19.06157288 -18.36553955 17.89797974 C-18.34846606 11.84221716 -18.08472524 7.28306634 -15 2 C-10.34186237 -1.10542508 -5.45168836 -0.74307763 0 0 Z " fill="#85BF40" transform="translate(947,671)"/>
<path d="M0 0 C3.0125992 0.55148674 4.07804868 0.99191524 6.046875 3.2734375 C8.26992987 7.25960485 8.9739198 10.26557411 9.03295898 14.78540039 C9.04644882 15.61628677 9.05993866 16.44717316 9.07383728 17.30323792 C9.08427567 18.19188034 9.09471405 19.08052277 9.10546875 19.99609375 C9.13838946 21.88346849 9.17160139 23.77083817 9.20507812 25.65820312 C9.25259496 28.62960534 9.29707304 31.60098448 9.33618164 34.57250977 C9.37581664 37.44308021 9.42736048 40.31324545 9.48046875 43.18359375 C9.4888829 44.07426041 9.49729706 44.96492706 9.50596619 45.88258362 C9.52260818 46.71031784 9.53925018 47.53805206 9.55639648 48.39086914 C9.56670395 49.11826797 9.57701141 49.84566681 9.58763123 50.59510803 C9.76319436 52.84842988 9.76319436 52.84842988 11.859375 55.5234375 C14.81683992 56.10689226 14.81683992 56.10689226 17.859375 55.5234375 C21.6811595 52.38411452 22.18355203 47.19216438 22.859375 42.5234375 C23.20711956 36.21406263 23.26300718 29.89875673 23.31567383 23.58081055 C23.33740499 21.3907389 23.37680611 19.20149908 23.41796875 17.01171875 C23.43142334 15.71790283 23.44487793 14.42408691 23.45874023 13.09106445 C23.96775086 8.55835737 25.54199207 5.35919891 28.1796875 1.68359375 C32.05482526 -0.99295489 37.41919656 -0.21359617 41.859375 0.5234375 C44.67725006 2.24251851 45.22507525 3.48025866 46.859375 6.5234375 C48.23592713 12.24620116 48.03895875 18.09773881 48.0625 23.94921875 C48.06820007 25.05138229 48.07390015 26.15354584 48.07977295 27.28910828 C48.08919878 29.6164759 48.0957473 31.94385673 48.09960938 34.27124023 C48.10931278 37.81322733 48.14035905 41.35463332 48.171875 44.89648438 C48.17840613 47.16405908 48.18365617 49.4316379 48.1875 51.69921875 C48.1998468 52.7495076 48.2121936 53.79979645 48.22491455 54.88191223 C48.20640063 61.05720491 47.83402427 66.97702261 44.859375 72.5234375 C40.19714045 75.63159387 35.31922196 75.13499931 29.859375 74.5234375 C26.18006772 72.43128238 25.1888816 71.51195731 23.859375 67.5234375 C23.13621094 68.15572266 23.13621094 68.15572266 22.3984375 68.80078125 C21.76679687 69.34863281 21.13515625 69.89648438 20.484375 70.4609375 C19.85789062 71.00621094 19.23140625 71.55148437 18.5859375 72.11328125 C13.6629365 76.13410333 6.87596968 74.97302919 0.859375 74.5234375 C-5.39657994 73.07221284 -8.49436244 69.36743717 -11.9140625 64.1328125 C-15.03692175 57.48927754 -15.44037797 51.01209795 -15.40625 43.80078125 C-15.40816345 42.89646866 -15.4100769 41.99215607 -15.41204834 41.06044006 C-15.41340163 39.16032633 -15.4097654 37.26020308 -15.40136719 35.36010742 C-15.39064291 32.4657705 -15.40129814 29.5720524 -15.4140625 26.67773438 C-15.412741 24.82291531 -15.4101788 22.96809663 -15.40625 21.11328125 C-15.41029846 20.25580795 -15.41434692 19.39833466 -15.41851807 18.51487732 C-15.37222083 12.53325173 -15.02895975 7.10570372 -11.38671875 2.125 C-7.70892458 -0.49742715 -4.38385413 -0.13900025 0 0 Z " fill="#85BF40" transform="translate(695.140625,670.4765625)"/>
<path d="M0 0 C6.41156653 4.17908901 10.68294221 10.19429762 12.4362793 17.63256836 C13.31781848 23.23911487 13.16669858 28.91267469 13.15234375 34.57421875 C13.16845703 35.8375 13.18457031 37.10078125 13.20117188 38.40234375 C13.20607882 47.84330792 12.41539692 56.96815039 6.4296875 64.6640625 C-0.6170257 71.46838261 -8.55373691 72.39474889 -17.84765625 72.44921875 C-18.70810547 72.46984375 -19.56855469 72.49046875 -20.45507812 72.51171875 C-29.61987776 72.56696999 -36.70272726 70.50609407 -43.43359375 64.1640625 C-50.89353817 55.67457824 -50.36748965 45.7370341 -50.41015625 35.01171875 C-50.43078125 33.73490234 -50.45140625 32.45808594 -50.47265625 31.14257812 C-50.51632086 20.52661882 -49.66151207 11.79028576 -42.12890625 3.890625 C-31.68806888 -5.07938012 -12.03829645 -6.02972669 0 0 Z M-26.16015625 20.19921875 C-26.77186545 23.60660238 -26.77186545 23.60660238 -26.69140625 27.328125 C-26.69714661 28.33539894 -26.69714661 28.33539894 -26.70300293 29.36302185 C-26.70571316 30.7758027 -26.69841413 32.18863449 -26.68164062 33.60131836 C-26.66017891 35.75943966 -26.68148383 37.91424582 -26.70703125 40.07226562 C-26.70438847 41.44922606 -26.6992645 42.82618445 -26.69140625 44.203125 C-26.68689453 45.44908447 -26.68238281 46.69504395 -26.67773438 47.97875977 C-26.07295568 51.7417955 -25.14867684 52.91597228 -22.16015625 55.19921875 C-20.185878 55.85713068 -20.185878 55.85713068 -18.16015625 55.76171875 C-17.50015625 55.78363281 -16.84015625 55.80554688 -16.16015625 55.828125 C-13.00588798 54.83625548 -11.95705874 52.91125949 -10.16015625 50.19921875 C-9.5657005 47.00346991 -9.5657005 47.00346991 -9.6640625 43.54296875 C-9.66341797 42.27324219 -9.66277344 41.00351562 -9.66210938 39.6953125 C-9.69208008 37.71724609 -9.69208008 37.71724609 -9.72265625 35.69921875 C-9.71556641 34.38050781 -9.70847656 33.06179688 -9.70117188 31.703125 C-9.53975417 22.66645409 -9.53975417 22.66645409 -14.16015625 15.19921875 C-20.55968079 14.56975732 -22.46480007 14.5387624 -26.16015625 20.19921875 Z " fill="#85BF40" transform="translate(906.16015625,673.80078125)"/>
<path d="M0 0 C6.41156653 4.17908901 10.68294221 10.19429762 12.4362793 17.63256836 C13.31781848 23.23911487 13.16669858 28.91267469 13.15234375 34.57421875 C13.16845703 35.8375 13.18457031 37.10078125 13.20117188 38.40234375 C13.20607882 47.84330792 12.41539692 56.96815039 6.4296875 64.6640625 C-0.6170257 71.46838261 -8.55373691 72.39474889 -17.84765625 72.44921875 C-18.70810547 72.46984375 -19.56855469 72.49046875 -20.45507812 72.51171875 C-29.61987776 72.56696999 -36.70272726 70.50609407 -43.43359375 64.1640625 C-50.89353817 55.67457824 -50.36748965 45.7370341 -50.41015625 35.01171875 C-50.43078125 33.73490234 -50.45140625 32.45808594 -50.47265625 31.14257812 C-50.51632086 20.52661882 -49.66151207 11.79028576 -42.12890625 3.890625 C-31.68806888 -5.07938012 -12.03829645 -6.02972669 0 0 Z M-26.16015625 20.19921875 C-26.77186545 23.60660238 -26.77186545 23.60660238 -26.69140625 27.328125 C-26.69714661 28.33539894 -26.69714661 28.33539894 -26.70300293 29.36302185 C-26.70571316 30.7758027 -26.69841413 32.18863449 -26.68164062 33.60131836 C-26.66017891 35.75943966 -26.68148383 37.91424582 -26.70703125 40.07226562 C-26.70438847 41.44922606 -26.6992645 42.82618445 -26.69140625 44.203125 C-26.68689453 45.44908447 -26.68238281 46.69504395 -26.67773438 47.97875977 C-26.07295568 51.7417955 -25.14867684 52.91597228 -22.16015625 55.19921875 C-20.185878 55.85713068 -20.185878 55.85713068 -18.16015625 55.76171875 C-17.50015625 55.78363281 -16.84015625 55.80554688 -16.16015625 55.828125 C-13.00588798 54.83625548 -11.95705874 52.91125949 -10.16015625 50.19921875 C-9.5657005 47.00346991 -9.5657005 47.00346991 -9.6640625 43.54296875 C-9.66341797 42.27324219 -9.66277344 41.00351562 -9.66210938 39.6953125 C-9.69208008 37.71724609 -9.69208008 37.71724609 -9.72265625 35.69921875 C-9.71556641 34.38050781 -9.70847656 33.06179688 -9.70117188 31.703125 C-9.53975417 22.66645409 -9.53975417 22.66645409 -14.16015625 15.19921875 C-20.55968079 14.56975732 -22.46480007 14.5387624 -26.16015625 20.19921875 Z " fill="#85BF40" transform="translate(618.16015625,673.80078125)"/>
<path d="M0 0 C6.41156653 4.17908901 10.68294221 10.19429762 12.4362793 17.63256836 C13.31781848 23.23911487 13.16669858 28.91267469 13.15234375 34.57421875 C13.16845703 35.8375 13.18457031 37.10078125 13.20117188 38.40234375 C13.20607882 47.84330792 12.41539692 56.96815039 6.4296875 64.6640625 C-0.6170257 71.46838261 -8.55373691 72.39474889 -17.84765625 72.44921875 C-18.70810547 72.46984375 -19.56855469 72.49046875 -20.45507812 72.51171875 C-29.61987776 72.56696999 -36.70272726 70.50609407 -43.43359375 64.1640625 C-50.89353817 55.67457824 -50.36748965 45.7370341 -50.41015625 35.01171875 C-50.43078125 33.73490234 -50.45140625 32.45808594 -50.47265625 31.14257812 C-50.51632086 20.52661882 -49.66151207 11.79028576 -42.12890625 3.890625 C-31.68806888 -5.07938012 -12.03829645 -6.02972669 0 0 Z M-26.16015625 20.19921875 C-26.77186545 23.60660238 -26.77186545 23.60660238 -26.69140625 27.328125 C-26.69714661 28.33539894 -26.69714661 28.33539894 -26.70300293 29.36302185 C-26.70571316 30.7758027 -26.69841413 32.18863449 -26.68164062 33.60131836 C-26.66017891 35.75943966 -26.68148383 37.91424582 -26.70703125 40.07226562 C-26.70438847 41.44922606 -26.6992645 42.82618445 -26.69140625 44.203125 C-26.68689453 45.44908447 -26.68238281 46.69504395 -26.67773438 47.97875977 C-26.07295568 51.7417955 -25.14867684 52.91597228 -22.16015625 55.19921875 C-20.185878 55.85713068 -20.185878 55.85713068 -18.16015625 55.76171875 C-17.50015625 55.78363281 -16.84015625 55.80554688 -16.16015625 55.828125 C-13.00588798 54.83625548 -11.95705874 52.91125949 -10.16015625 50.19921875 C-9.5657005 47.00346991 -9.5657005 47.00346991 -9.6640625 43.54296875 C-9.66341797 42.27324219 -9.66277344 41.00351562 -9.66210938 39.6953125 C-9.69208008 37.71724609 -9.69208008 37.71724609 -9.72265625 35.69921875 C-9.71556641 34.38050781 -9.70847656 33.06179688 -9.70117188 31.703125 C-9.53975417 22.66645409 -9.53975417 22.66645409 -14.16015625 15.19921875 C-20.55968079 14.56975732 -22.46480007 14.5387624 -26.16015625 20.19921875 Z " fill="#85BF40" transform="translate(204.16015625,673.80078125)"/>
<path d="M0 0 C3.95554938 2.50839717 4.82953566 5.577139 6 10 C6.23184336 13.29693332 6.18966548 16.57208615 6.125 19.875 C6.11597656 20.75414062 6.10695313 21.63328125 6.09765625 22.5390625 C6.07424577 24.6928271 6.0383801 26.84645014 6 29 C7.35544922 28.94779297 7.35544922 28.94779297 8.73828125 28.89453125 C9.91777344 28.86746094 11.09726562 28.84039063 12.3125 28.8125 C13.48425781 28.77769531 14.65601563 28.74289062 15.86328125 28.70703125 C19 29 19 29 20.890625 30.171875 C22.40821637 32.67269458 22.43354732 34.52437573 22.4375 37.4375 C22.45683594 38.38496094 22.47617187 39.33242188 22.49609375 40.30859375 C21.85123662 43.80707063 20.78357942 44.82065748 18 47 C14.984375 47.390625 14.984375 47.390625 11.75 47.25 C10.67234375 47.21390625 9.5946875 47.1778125 8.484375 47.140625 C7.66453125 47.09421875 6.8446875 47.0478125 6 47 C6.01940529 51.36086339 6.07106924 55.71979215 6.15258789 60.07983398 C6.17577689 61.56279477 6.19016581 63.04592045 6.19555664 64.52905273 C6.20484113 66.66234178 6.24580821 68.79303474 6.29296875 70.92578125 C6.3086792 72.20880127 6.32438965 73.49182129 6.34057617 74.8137207 C6.68304215 78.14525999 6.68304215 78.14525999 9.31762695 79.91088867 C12.08710171 81.16350979 12.08710171 81.16350979 15.625 81.5 C19 82 19 82 20.68359375 83.1953125 C23.35979741 86.8641733 22.56854859 91.68534792 22 96 C19.69234869 100.18795979 17.47970741 101.60388522 13 103 C10.18265325 103.30507685 7.39427016 103.32480135 4.5625 103.3125 C3.82451172 103.32861328 3.08652344 103.34472656 2.32617188 103.36132812 C-2.52069611 103.36563645 -5.79175182 102.63716886 -10 100 C-15.16606918 94.83393082 -17.04743211 89.77515347 -17.22705078 82.53344727 C-17.22673825 80.87773316 -17.21568623 79.22199503 -17.1953125 77.56640625 C-17.1924826 76.68846909 -17.18965271 75.81053192 -17.18673706 74.9059906 C-17.17561598 72.12468355 -17.15052672 69.34370836 -17.125 66.5625 C-17.11495975 64.66732239 -17.10583573 62.77213968 -17.09765625 60.87695312 C-17.07570315 56.25117583 -17.0412296 51.62564402 -17 47 C-17.7628833 47.01595215 -18.5257666 47.0319043 -19.31176758 47.04833984 C-20.30845459 47.06074707 -21.3051416 47.0731543 -22.33203125 47.0859375 C-23.32178955 47.10188965 -24.31154785 47.1178418 -25.33129883 47.13427734 C-28 47 -28 47 -30.6875 45.625 C-32.76820695 41.4635861 -32.70283028 37.5495035 -32 33 C-30.6875 30.375 -30.6875 30.375 -28 29 C-26.11284724 28.90504675 -24.22132595 28.88361233 -22.33203125 28.9140625 C-21.33534424 28.92646973 -20.33865723 28.93887695 -19.31176758 28.95166016 C-18.16744263 28.97558838 -18.16744263 28.97558838 -17 29 C-17.02356567 28.03960815 -17.02356567 28.03960815 -17.04760742 27.05981445 C-17.11017115 24.14413369 -17.14905808 21.22859445 -17.1875 18.3125 C-17.21263672 17.30509766 -17.23777344 16.29769531 -17.26367188 15.25976562 C-17.35691643 5.8420652 -17.35691643 5.8420652 -14 2 C-9.5477731 -0.96815127 -5.22073503 -0.62711532 0 0 Z " fill="#85BF40" transform="translate(784,642)"/>
<path d="M0 0 C3.95554938 2.50839717 4.82953566 5.577139 6 10 C6.23184336 13.29693332 6.18966548 16.57208615 6.125 19.875 C6.11597656 20.75414062 6.10695313 21.63328125 6.09765625 22.5390625 C6.07424577 24.6928271 6.0383801 26.84645014 6 29 C7.35544922 28.94779297 7.35544922 28.94779297 8.73828125 28.89453125 C9.91777344 28.86746094 11.09726562 28.84039063 12.3125 28.8125 C13.48425781 28.77769531 14.65601563 28.74289062 15.86328125 28.70703125 C19 29 19 29 20.890625 30.171875 C22.40821637 32.67269458 22.43354732 34.52437573 22.4375 37.4375 C22.45683594 38.38496094 22.47617187 39.33242188 22.49609375 40.30859375 C21.85123662 43.80707063 20.78357942 44.82065748 18 47 C14.984375 47.390625 14.984375 47.390625 11.75 47.25 C10.67234375 47.21390625 9.5946875 47.1778125 8.484375 47.140625 C7.66453125 47.09421875 6.8446875 47.0478125 6 47 C6.01940529 51.36086339 6.07106924 55.71979215 6.15258789 60.07983398 C6.17577689 61.56279477 6.19016581 63.04592045 6.19555664 64.52905273 C6.20484113 66.66234178 6.24580821 68.79303474 6.29296875 70.92578125 C6.3086792 72.20880127 6.32438965 73.49182129 6.34057617 74.8137207 C6.68304215 78.14525999 6.68304215 78.14525999 9.31762695 79.91088867 C12.08710171 81.16350979 12.08710171 81.16350979 15.625 81.5 C19 82 19 82 20.68359375 83.1953125 C23.35979741 86.8641733 22.56854859 91.68534792 22 96 C19.69234869 100.18795979 17.47970741 101.60388522 13 103 C10.18265325 103.30507685 7.39427016 103.32480135 4.5625 103.3125 C3.82451172 103.32861328 3.08652344 103.34472656 2.32617188 103.36132812 C-2.52069611 103.36563645 -5.79175182 102.63716886 -10 100 C-15.16606918 94.83393082 -17.04743211 89.77515347 -17.22705078 82.53344727 C-17.22673825 80.87773316 -17.21568623 79.22199503 -17.1953125 77.56640625 C-17.1924826 76.68846909 -17.18965271 75.81053192 -17.18673706 74.9059906 C-17.17561598 72.12468355 -17.15052672 69.34370836 -17.125 66.5625 C-17.11495975 64.66732239 -17.10583573 62.77213968 -17.09765625 60.87695312 C-17.07570315 56.25117583 -17.0412296 51.62564402 -17 47 C-17.7628833 47.01595215 -18.5257666 47.0319043 -19.31176758 47.04833984 C-20.30845459 47.06074707 -21.3051416 47.0731543 -22.33203125 47.0859375 C-23.32178955 47.10188965 -24.31154785 47.1178418 -25.33129883 47.13427734 C-28 47 -28 47 -30.6875 45.625 C-32.76820695 41.4635861 -32.70283028 37.5495035 -32 33 C-30.6875 30.375 -30.6875 30.375 -28 29 C-26.11284724 28.90504675 -24.22132595 28.88361233 -22.33203125 28.9140625 C-21.33534424 28.92646973 -20.33865723 28.93887695 -19.31176758 28.95166016 C-18.16744263 28.97558838 -18.16744263 28.97558838 -17 29 C-17.02356567 28.03960815 -17.02356567 28.03960815 -17.04760742 27.05981445 C-17.11017115 24.14413369 -17.14905808 21.22859445 -17.1875 18.3125 C-17.21263672 17.30509766 -17.23777344 16.29769531 -17.26367188 15.25976562 C-17.35691643 5.8420652 -17.35691643 5.8420652 -14 2 C-9.5477731 -0.96815127 -5.22073503 -0.62711532 0 0 Z " fill="#85BF40" transform="translate(309,642)"/>
<path d="M0 0 C1.02480469 -0.02835938 2.04960938 -0.05671875 3.10546875 -0.0859375 C10.4255021 -0.10453987 16.03530597 1.33065237 22.125 5.5 C26.4495394 10.05402719 26.5882423 14.96018607 26.65625 21.046875 C26.125 23.5 26.125 23.5 24.4375 25.3046875 C21.64947223 26.74579645 19.75384981 26.90078722 16.625 26.875 C15.21734375 26.88660156 15.21734375 26.88660156 13.78125 26.8984375 C10.68209628 26.43356444 9.36444966 25.66513164 7.125 23.5 C5.82413344 21.23319147 5.05328382 18.95995213 4.125 16.5 C1.485 16.5 -1.155 16.5 -3.875 16.5 C-4.83002158 18.22476911 -4.83002158 18.22476911 -4.875 20.5 C-1.09325951 25.06209963 3.16643545 27.26486683 8.4375 29.8125 C15.7099093 33.49477176 22.55325531 37.27910025 26.29296875 44.87109375 C28.20573766 50.91472509 28.17379043 58.02180428 25.625 63.875 C22.59325197 69.03542219 17.91622502 72.28352581 12.5078125 74.640625 C2.82777802 77.09975616 -10.95008378 77.38100634 -19.9921875 72.84375 C-24.21739522 69.82824906 -27.23009891 66.43470327 -28.875 61.5 C-29.33150222 57.01729792 -29.60524878 52.96049756 -27.5625 48.875 C-23.14267803 46.61369574 -18.72446993 46.78292899 -13.875 47.5 C-9.78168947 50.05831908 -8.55597248 54.12947155 -6.875 58.5 C-5.39593108 58.52689216 -3.91672517 58.54634621 -2.4375 58.5625 C-1.20193359 58.57990234 -1.20193359 58.57990234 0.05859375 58.59765625 C2.11663938 58.73267348 2.11663938 58.73267348 3.125 57.5 C3.42642916 54.16042692 3.42642916 54.16042692 2.125 50.5 C-1.00523923 47.50413973 -4.91575082 45.59858471 -8.67236328 43.4921875 C-25.75625651 33.85623048 -25.75625651 33.85623048 -28.875 24.5 C-29.27542199 18.59377567 -28.8437018 13.7204341 -25.875 8.5 C-18.4793868 0.76040479 -10.13851943 -0.02531466 0 0 Z " fill="#85BF40" transform="translate(1030.875,670.5)"/>
<path d="M0 0 C1.02480469 -0.02835938 2.04960938 -0.05671875 3.10546875 -0.0859375 C10.4255021 -0.10453987 16.03530597 1.33065237 22.125 5.5 C26.4495394 10.05402719 26.5882423 14.96018607 26.65625 21.046875 C26.125 23.5 26.125 23.5 24.4375 25.3046875 C21.64947223 26.74579645 19.75384981 26.90078722 16.625 26.875 C15.21734375 26.88660156 15.21734375 26.88660156 13.78125 26.8984375 C10.68209628 26.43356444 9.36444966 25.66513164 7.125 23.5 C5.82413344 21.23319147 5.05328382 18.95995213 4.125 16.5 C1.485 16.5 -1.155 16.5 -3.875 16.5 C-4.83002158 18.22476911 -4.83002158 18.22476911 -4.875 20.5 C-1.09325951 25.06209963 3.16643545 27.26486683 8.4375 29.8125 C15.7099093 33.49477176 22.55325531 37.27910025 26.29296875 44.87109375 C28.20573766 50.91472509 28.17379043 58.02180428 25.625 63.875 C22.59325197 69.03542219 17.91622502 72.28352581 12.5078125 74.640625 C2.82777802 77.09975616 -10.95008378 77.38100634 -19.9921875 72.84375 C-24.21739522 69.82824906 -27.23009891 66.43470327 -28.875 61.5 C-29.33150222 57.01729792 -29.60524878 52.96049756 -27.5625 48.875 C-23.14267803 46.61369574 -18.72446993 46.78292899 -13.875 47.5 C-9.78168947 50.05831908 -8.55597248 54.12947155 -6.875 58.5 C-5.39593108 58.52689216 -3.91672517 58.54634621 -2.4375 58.5625 C-1.20193359 58.57990234 -1.20193359 58.57990234 0.05859375 58.59765625 C2.11663938 58.73267348 2.11663938 58.73267348 3.125 57.5 C3.42642916 54.16042692 3.42642916 54.16042692 2.125 50.5 C-1.00523923 47.50413973 -4.91575082 45.59858471 -8.67236328 43.4921875 C-25.75625651 33.85623048 -25.75625651 33.85623048 -28.875 24.5 C-29.27542199 18.59377567 -28.8437018 13.7204341 -25.875 8.5 C-18.4793868 0.76040479 -10.13851943 -0.02531466 0 0 Z " fill="#85BF40" transform="translate(534.875,670.5)"/>
<path d="M0 0 C3.41311667 2.52570633 4.66637768 3.99913304 6 8 C6.10667397 10.7520703 6.1572542 13.47918721 6.16113281 16.23168945 C6.16609772 17.07105042 6.17106262 17.91041138 6.17617798 18.77520752 C6.19079379 21.55457375 6.19760082 24.33388289 6.203125 27.11328125 C6.20887716 29.04518129 6.21463489 30.97708131 6.22039795 32.90898132 C6.23090644 36.96170315 6.23675003 41.01440514 6.24023438 45.06713867 C6.24571718 50.25569877 6.26974132 55.44399619 6.29820633 60.63247395 C6.31684696 64.62422954 6.32203908 68.61592207 6.32357025 72.60771751 C6.32659435 74.52024966 6.33461468 76.43278076 6.34775543 78.34527016 C6.36484483 81.02375791 6.36292859 83.70160652 6.35644531 86.38012695 C6.3656601 87.16735641 6.37487488 87.95458588 6.3843689 88.76567078 C6.34809272 93.55943955 5.66757953 96.85698002 3 101 C-1.44776246 103.96517497 -5.78521883 103.76239491 -11 103 C-14.41311667 100.47429367 -15.66637768 99.00086696 -17 95 C-17.10667397 92.2479297 -17.1572542 89.52081279 -17.16113281 86.76831055 C-17.16609772 85.92894958 -17.17106262 85.08958862 -17.17617798 84.22479248 C-17.19079379 81.44542625 -17.19760082 78.66611711 -17.203125 75.88671875 C-17.20887716 73.95481871 -17.21463489 72.02291869 -17.22039795 70.09101868 C-17.23090644 66.03829685 -17.23675003 61.98559486 -17.24023438 57.93286133 C-17.24571718 52.74430123 -17.26974132 47.55600381 -17.29820633 42.36752605 C-17.31684696 38.37577046 -17.32203908 34.38407793 -17.32357025 30.39228249 C-17.32659435 28.47975034 -17.33461468 26.56721924 -17.34775543 24.65472984 C-17.36484483 21.97624209 -17.36292859 19.29839348 -17.35644531 16.61987305 C-17.3656601 15.83264359 -17.37487488 15.04541412 -17.3843689 14.23432922 C-17.34809272 9.44056045 -16.66757953 6.14301998 -14 2 C-9.55223754 -0.96517497 -5.21478117 -0.76239491 0 0 Z " fill="#85C040" transform="translate(659,642)"/>
<path d="M0 0 C3.41311667 2.52570633 4.66637768 3.99913304 6 8 C6.10667397 10.7520703 6.1572542 13.47918721 6.16113281 16.23168945 C6.16609772 17.07105042 6.17106262 17.91041138 6.17617798 18.77520752 C6.19079379 21.55457375 6.19760082 24.33388289 6.203125 27.11328125 C6.20887716 29.04518129 6.21463489 30.97708131 6.22039795 32.90898132 C6.23090644 36.96170315 6.23675003 41.01440514 6.24023438 45.06713867 C6.24571718 50.25569877 6.26974132 55.44399619 6.29820633 60.63247395 C6.31684696 64.62422954 6.32203908 68.61592207 6.32357025 72.60771751 C6.32659435 74.52024966 6.33461468 76.43278076 6.34775543 78.34527016 C6.36484483 81.02375791 6.36292859 83.70160652 6.35644531 86.38012695 C6.3656601 87.16735641 6.37487488 87.95458588 6.3843689 88.76567078 C6.34809272 93.55943955 5.66757953 96.85698002 3 101 C-1.44776246 103.96517497 -5.78521883 103.76239491 -11 103 C-14.41311667 100.47429367 -15.66637768 99.00086696 -17 95 C-17.10667397 92.2479297 -17.1572542 89.52081279 -17.16113281 86.76831055 C-17.16609772 85.92894958 -17.17106262 85.08958862 -17.17617798 84.22479248 C-17.19079379 81.44542625 -17.19760082 78.66611711 -17.203125 75.88671875 C-17.20887716 73.95481871 -17.21463489 72.02291869 -17.22039795 70.09101868 C-17.23090644 66.03829685 -17.23675003 61.98559486 -17.24023438 57.93286133 C-17.24571718 52.74430123 -17.26974132 47.55600381 -17.29820633 42.36752605 C-17.31684696 38.37577046 -17.32203908 34.38407793 -17.32357025 30.39228249 C-17.32659435 28.47975034 -17.33461468 26.56721924 -17.34775543 24.65472984 C-17.36484483 21.97624209 -17.36292859 19.29839348 -17.35644531 16.61987305 C-17.3656601 15.83264359 -17.37487488 15.04541412 -17.3843689 14.23432922 C-17.34809272 9.44056045 -16.66757953 6.14301998 -14 2 C-9.55223754 -0.96517497 -5.21478117 -0.76239491 0 0 Z " fill="#85C040" transform="translate(432,642)"/>
<path d="M0 0 C2.5625 1.375 2.5625 1.375 4 4 C4.88665606 7.30810856 5.50861686 10.61204254 6 14 C6.515625 12.80375 7.03125 11.6075 7.5625 10.375 C9.87924922 5.85412131 12.37539191 2.31653129 17 0 C20.76673383 -0.6848607 24.26617215 -0.91562021 28 0 C30.49048138 2.26850369 30.95720894 3.72078831 31.46875 7.05859375 C31.5514049 15.99565535 31.5514049 15.99565535 29.25 20.1875 C25.15547588 22.47098461 21.42839074 22.871229 16.8203125 23.48828125 C13.20305911 24.14459731 11.3562204 25.17253552 9 28 C7.08992728 32.62893788 6.74919517 36.60966966 6.7265625 41.59375 C6.70628105 43.05078904 6.68543042 44.50782024 6.6640625 45.96484375 C6.64146485 48.23590774 6.62498287 50.50666069 6.61914062 52.77783203 C6.60957961 54.9878596 6.5757783 57.19652941 6.5390625 59.40625 C6.52673584 61.37561523 6.52673584 61.37561523 6.51416016 63.38476562 C5.91996235 67.56277185 4.63293618 69.74187211 2 73 C-1.93817663 74.96908831 -6.70604097 74.45166088 -11 74 C-14.96429918 71.48605418 -15.85612164 68.44383967 -17 64 C-17.30469836 59.96112698 -17.30406112 55.93176509 -17.30078125 51.8828125 C-17.30506638 50.71168915 -17.3093515 49.5405658 -17.31376648 48.33395386 C-17.31949937 45.86115158 -17.32001773 43.38833245 -17.31567383 40.91552734 C-17.31251692 37.14521303 -17.33597675 33.37568598 -17.36132812 29.60546875 C-17.36360161 27.19791765 -17.36430439 24.79036445 -17.36328125 22.3828125 C-17.372491 21.26174103 -17.38170074 20.14066956 -17.39118958 18.98562622 C-17.3538827 12.62994651 -16.8466445 7.73002529 -14 2 C-9.53180468 -0.97879688 -5.23567925 -0.5974649 0 0 Z " fill="#85BF40" transform="translate(244,671)"/>
<path d="M0 0 C3.41311667 2.52570633 4.66637768 3.99913304 6 8 C6.10325517 9.85443107 6.14852211 11.71231941 6.16113281 13.56958008 C6.17074036 14.71119095 6.1803479 15.85280182 6.19024658 17.02900696 C6.19449646 18.26337997 6.19874634 19.49775299 6.203125 20.76953125 C6.20882507 22.03842697 6.21452515 23.30732269 6.22039795 24.6146698 C6.22985201 27.30215033 6.23674671 29.98951909 6.24023438 32.67700195 C6.24571164 36.11013066 6.26972702 39.54286127 6.29820633 42.97586536 C6.32138392 46.26122361 6.32328593 49.5466027 6.328125 52.83203125 C6.3404718 54.06033157 6.3528186 55.2886319 6.36553955 56.55415344 C6.33728424 67.3914392 6.33728424 67.3914392 3 72 C-1.44776246 74.96517497 -5.78521883 74.76239491 -11 74 C-14.41311667 71.47429367 -15.66637768 70.00086696 -17 66 C-17.10325517 64.14556893 -17.14852211 62.28768059 -17.16113281 60.43041992 C-17.17074036 59.28880905 -17.1803479 58.14719818 -17.19024658 56.97099304 C-17.19449646 55.73662003 -17.19874634 54.50224701 -17.203125 53.23046875 C-17.21167511 51.32712517 -17.21167511 51.32712517 -17.22039795 49.3853302 C-17.22985201 46.69784967 -17.23674671 44.01048091 -17.24023438 41.32299805 C-17.24571164 37.88986934 -17.26972702 34.45713873 -17.29820633 31.02413464 C-17.32138392 27.73877639 -17.32328593 24.4533973 -17.328125 21.16796875 C-17.3404718 19.93966843 -17.3528186 18.7113681 -17.36553955 17.44584656 C-17.33728424 6.6085608 -17.33728424 6.6085608 -14 2 C-9.55223754 -0.96517497 -5.21478117 -0.76239491 0 0 Z " fill="#85C040" transform="translate(836,671)"/>
<path d="M0 0 C3.25 1.75 3.25 1.75 5 5 C5.90797526 10.57096685 5.95500773 15.22641422 3.25 20.25 C-1.73603089 22.93478586 -6.46262797 22.85013595 -12 22 C-15.07365786 20.19196596 -16.43019732 19.13960536 -18 16 C-18.53118252 11.08003072 -18.75105553 7.22672403 -16.125 2.9375 C-11.50445593 -1.27534901 -5.96286661 -0.65107199 0 0 Z " fill="#85BF40" transform="translate(837,642)"/>
</g>
</svg>
