<?xml version="1.0" encoding="UTF-8"?>
<svg id="Layer_2" data-name="Layer 2" xmlns="http://www.w3.org/2000/svg" viewBox="0 -55 186.52 270">
  <defs>
    <style>
      @keyframes icon-pulse {
        0%, 100% { transform: scale(1); }
        50% { transform: scale(1.06); }
      }
      @keyframes plus-float-1 {
        0%, 100% { transform: translateY(0); opacity: 0.9; }
        50% { transform: translateY(-9px); opacity: 0.35; }
      }
      @keyframes plus-float-2 {
        0%, 100% { transform: translateY(0); opacity: 0.65; }
        50% { transform: translateY(-12px); opacity: 0.2; }
      }
      @keyframes plus-float-3 {
        0%, 100% { transform: translateY(0); opacity: 0.45; }
        50% { transform: translateY(-15px); opacity: 0.08; }
      }

      .vp-icon {
        animation: icon-pulse 3s ease-in-out infinite;
        transform-box: fill-box;
        transform-origin: center;
      }
      .vp-plus-1 { animation: plus-float-1 2.4s ease-in-out infinite; }
      .vp-plus-2 { animation: plus-float-2 2.4s ease-in-out infinite 0.4s; }
      .vp-plus-3 { animation: plus-float-3 2.4s ease-in-out infinite 0.8s; }
    </style>
  </defs>

  <!-- Floating + signs above the icon -->
  <text class="vp-plus-1" x="60" y="-8" font-family="Arial, sans-serif" font-weight="bold" font-size="28" fill="#0653ce">+</text>
  <text class="vp-plus-2" x="98" y="-22" font-family="Arial, sans-serif" font-weight="bold" font-size="22" fill="#0653ce">+</text>
  <text class="vp-plus-3" x="128" y="-34" font-family="Arial, sans-serif" font-weight="bold" font-size="17" fill="#0653ce">+</text>

  <g id="Layer_1-2" data-name="Layer 1" class="vp-icon">
    <path fill="#0653ce" d="M175.4,0H11.16C5,0,0,5,0,11.12V203.94c0,6.11,5,11.12,11.16,11.12H175.4c6.11,0,11.12-5,11.12-11.12V11.12c0-6.11-5-11.12-11.12-11.12ZM34.12,109.38c-2.36-.43-4.48-1.49-5.97-3.18-1.92-2.07-2.74-4.76-2.31-7.6l1.25-8.52c.82-5.53,6.3-10.15,12.51-10.59l39.03-2.5c1.49-.1,2.6-1.2,2.65-1.68l7.07-47.83c.82-5.53,6.3-10.15,12.51-10.54l10.06-.67c3.56-.24,6.78,.96,8.95,3.27,1.88,2.07,2.69,4.81,2.31,7.65l-7.31,49.28c-2.31,15.88-18.62,29.21-37.05,30.41l-40.76,2.65c-1.01,.05-1.97,0-2.94-.14Zm126.61,7.8l-1.11,7.31c-.87,5.87-6.69,10.78-13.28,11.21l-38.35,2.45c-1.49,.1-2.55,1.25-2.65,1.68l-6.98,47.25c-.87,5.87-6.69,10.78-13.28,11.21l-8.66,.58c-1.06,.05-2.12,0-3.13-.14-2.5-.43-4.72-1.59-6.3-3.32-2.02-2.17-2.84-5-2.41-7.99l7.17-48.75c2.36-15.83,18.62-29.21,37.05-30.36l40.08-2.6c3.75-.24,7.17,1.01,9.43,3.46,1.97,2.17,2.84,5,2.41,7.99Z"/>
  </g>
</svg>
